<svg width="2789" height="1295" xmlns="http://www.w3.org/2000/svg" xmlns:xlink="http://www.w3.org/1999/xlink" overflow="hidden"><defs><clipPath id="clip0"><rect x="-1" y="-1" width="2789" height="1295"/></clipPath></defs><g clip-path="url(#clip0)" transform="translate(1 1)"><rect x="3.0001" y="316" width="2785" height="978" fill="#FFFFFF"/><rect x="941" y="0" width="888" height="102" stroke="#000000" stroke-width="2.29167" stroke-linejoin="round" stroke-miterlimit="10" fill="#8FAADC"/><text font-family="Times New Roman,Times New Roman_MSFontService,sans-serif" font-weight="400" font-size="55" transform="matrix(1 0 0 1 1022.23 67)">School Canteen Catering System</text><rect x="0" y="0" width="338" height="102" stroke="#000000" stroke-width="2.29167" stroke-linejoin="round" stroke-miterlimit="10" fill="#8FAADC" transform="matrix(-1 0 0 1 456 310)"/><text font-family="Times New Roman,Times New Roman_MSFontService,sans-serif" font-weight="400" font-size="55" transform="matrix(1 0 0 1 206.458 378)">Sign In</text><rect x="0" y="0" width="338" height="101" stroke="#000000" stroke-width="2.29167" stroke-linejoin="round" stroke-miterlimit="10" fill="#8FAADC" transform="matrix(-1 0 0 1 919 309)"/><text font-family="Times New Roman,Times New Roman_MSFontService,sans-serif" font-weight="400" font-size="55" transform="matrix(1 0 0 1 666.238 376)">Student</text><rect x="0" y="0" width="338" height="102" stroke="#000000" stroke-width="2.29167" stroke-linejoin="round" stroke-miterlimit="10" fill="#8FAADC" transform="matrix(-1 0 0 1 1402 310)"/><text font-family="Times New Roman,Times New Roman_MSFontService,sans-serif" font-weight="400" font-size="55" transform="matrix(1 0 0 1 1179.27 378)">Staff</text><rect x="0" y="0" width="338" height="102" stroke="#000000" stroke-width="2.29167" stroke-linejoin="round" stroke-miterlimit="10" fill="#8FAADC" transform="matrix(-1 0 0 1 2484 310)"/><text font-family="Times New Roman,Times New Roman_MSFontService,sans-serif" font-weight="400" font-size="55" transform="matrix(1 0 0 1 2238.71 378)">Admin</text><path d="M288 412 288 478" stroke="#4472C4" stroke-width="2.29167" stroke-miterlimit="8" fill="none" fill-rule="evenodd"/><path d="M121 478 445.774 478.001" stroke="#4472C4" stroke-width="2.29167" stroke-miterlimit="8" fill="none" fill-rule="evenodd"/><path d="M122.146 478 122.146 534.594 119.854 534.594 119.854 478ZM134.75 530.011 121 557.511 107.25 530.011Z" fill="#4472C4"/><rect x="0" y="0" width="240" height="102" stroke="#000000" stroke-width="2.29167" stroke-linejoin="round" stroke-miterlimit="10" fill="#8FAADC" transform="matrix(-1 0 0 1 240 557)"/><text font-family="Times New Roman,Times New Roman_MSFontService,sans-serif" font-weight="400" font-size="55" transform="matrix(1 0 0 1 35.8884 625)">Student</text><path d="M447.146 478 447.146 534.594 444.854 534.594 444.854 478ZM459.75 530.011 446 557.511 432.25 530.011Z" fill="#4472C4"/><rect x="0" y="0" width="240" height="102" stroke="#000000" stroke-width="2.29167" stroke-linejoin="round" stroke-miterlimit="10" fill="#8FAADC" transform="matrix(-1 0 0 1 565 557)"/><text font-family="Times New Roman,Times New Roman_MSFontService,sans-serif" font-weight="400" font-size="55" transform="matrix(1 0 0 1 391.245 625)">Staff</text><path d="M756.146 412 756.146 530.411 753.854 530.411 753.854 412ZM768.75 525.828 755 553.328 741.25 525.828Z" fill="#4472C4"/><path d="M1236 412 1236 478" stroke="#4472C4" stroke-width="2.29167" stroke-miterlimit="8" fill="none" fill-rule="evenodd"/><path d="M1068 478 1392.77 478.001" stroke="#4472C4" stroke-width="2.29167" stroke-miterlimit="8" fill="none" fill-rule="evenodd"/><path d="M1069.15 478 1069.15 534.594 1066.85 534.594 1066.85 478ZM1081.75 530.011 1068 557.511 1054.25 530.011Z" fill="#4472C4"/><path d="M1394.15 478 1394.15 534.594 1391.85 534.594 1391.85 478ZM1406.75 530.011 1393 557.511 1379.25 530.011Z" fill="#4472C4"/><path d="M2319 413 2319 479" stroke="#4472C4" stroke-width="2.29167" stroke-miterlimit="8" fill="none" fill-rule="evenodd"/><path d="M2023 479 2608.81 480.585" stroke="#4472C4" stroke-width="2.29167" stroke-miterlimit="8" fill="none" fill-rule="evenodd"/><path d="M2024.15 479 2024.15 535.594 2021.85 535.594 2021.85 479ZM2036.75 531.01 2023 558.511 2009.25 531.011Z" fill="#4472C4"/><path d="M2320.15 478 2320.15 534.594 2317.85 534.594 2317.85 478ZM2332.75 530.011 2319 557.511 2305.25 530.011Z" fill="#4472C4"/><rect x="0" y="0" width="195" height="165" stroke="#000000" stroke-width="2.29167" stroke-linejoin="round" stroke-miterlimit="10" fill="#8FAADC" transform="matrix(-1 0 0 1 855 554)"/><text font-family="Times New Roman,Times New Roman_MSFontService,sans-serif" font-weight="400" font-size="55" transform="matrix(1 0 0 1 698.003 622)">View <tspan font-size="55" x="13.75" y="67">Info</tspan></text><path d="M761.146 719 761.146 775.594 758.854 775.594 758.854 719ZM773.75 771.011 760 798.511 746.25 771.011Z" fill="#4472C4"/><rect x="0" y="0" width="195" height="165" stroke="#000000" stroke-width="2.29167" stroke-linejoin="round" stroke-miterlimit="10" fill="#8FAADC" transform="matrix(-1 0 0 1 855 799)"/><text font-family="Times New Roman,Times New Roman_MSFontService,sans-serif" font-weight="400" font-size="55" transform="matrix(1 0 0 1 711.73 866)">Edit <tspan font-size="55" x="0.0228882" y="67">Info</tspan></text><rect x="0" y="0" width="277" height="227" stroke="#000000" stroke-width="2.29167" stroke-linejoin="round" stroke-miterlimit="10" fill="#8FAADC" transform="matrix(-1 0 0 1 1236 557)"/><text font-family="Times New Roman,Times New Roman_MSFontService,sans-serif" font-weight="400" font-size="55" transform="matrix(1 0 0 1 1037.95 625)">View <tspan font-size="55" x="-24.475" y="67">Student </tspan><tspan font-size="55" x="-41.2042" y="135">Database</tspan></text><rect x="0" y="0" width="276" height="227" stroke="#000000" stroke-width="2.29167" stroke-linejoin="round" stroke-miterlimit="10" fill="#8FAADC" transform="matrix(-1 0 0 1 1512 557)"/><text font-family="Times New Roman,Times New Roman_MSFontService,sans-serif" font-weight="400" font-size="55" transform="matrix(1 0 0 1 1314.47 625)">View <tspan font-size="55" x="-10.7021" y="67">Lunch </tspan><tspan font-size="55" x="-41.2042" y="135">Database</tspan></text><rect x="0" y="0" width="276" height="227" stroke="#000000" stroke-width="2.29167" stroke-linejoin="round" stroke-miterlimit="10" fill="#8FAADC" transform="matrix(-1 0 0 1 2160 559)"/><text font-family="Times New Roman,Times New Roman_MSFontService,sans-serif" font-weight="400" font-size="55" transform="matrix(1 0 0 1 1962.31 626)">View <tspan font-size="55" x="-24.475" y="67">Student </tspan><tspan font-size="55" x="-41.2041" y="135">Database</tspan></text><rect x="0" y="0" width="276" height="227" stroke="#000000" stroke-width="2.29167" stroke-linejoin="round" stroke-miterlimit="10" fill="#8FAADC" transform="matrix(-1 0 0 1 2455 558)"/><text font-family="Times New Roman,Times New Roman_MSFontService,sans-serif" font-weight="400" font-size="55" transform="matrix(1 0 0 1 2257.68 626)">View <tspan font-size="55" x="6.09595" y="67">Staff </tspan><tspan font-size="55" x="-41.2041" y="135">Database</tspan></text><path d="M2610.15 481 2610.15 537.594 2607.85 537.594 2607.85 481ZM2622.75 533.011 2609 560.511 2595.25 533.011Z" fill="#4472C4"/><rect x="0" y="0" width="276" height="227" stroke="#000000" stroke-width="2.29167" stroke-linejoin="round" stroke-miterlimit="10" fill="#8FAADC" transform="matrix(-1 0 0 1 2745 559)"/><text font-family="Times New Roman,Times New Roman_MSFontService,sans-serif" font-weight="400" font-size="55" transform="matrix(1 0 0 1 2547.68 626)">View <tspan font-size="55" x="-10.7021" y="67">Lunch </tspan><tspan font-size="55" x="-41.2041" y="135">Database</tspan></text><rect x="0" y="0" width="338" height="101" stroke="#000000" stroke-width="2.29167" stroke-linejoin="round" stroke-miterlimit="10" fill="#8FAADC" transform="matrix(-1 0 0 1 1862 309)"/><text font-family="Times New Roman,Times New Roman_MSFontService,sans-serif" font-weight="400" font-size="55" transform="matrix(1 0 0 1 1562.64 376)">Place Order</text><path d="M1693.15 412 1693.15 535.27 1690.85 535.27 1690.85 412ZM1705.75 530.686 1692 558.186 1678.25 530.687Z" fill="#4472C4"/><rect x="0" y="0" width="214" height="165" stroke="#000000" stroke-width="2.29167" stroke-linejoin="round" stroke-miterlimit="10" fill="#8FAADC" transform="matrix(-1 0 0 1 1799 557)"/><text font-family="Times New Roman,Times New Roman_MSFontService,sans-serif" font-weight="400" font-size="55" transform="matrix(1 0 0 1 1638.11 625)">Print <tspan font-size="55" x="-16.775" y="67">Check</tspan></text><path d="M1393 102 1393 161.5" stroke="#4472C4" stroke-width="2.29167" stroke-miterlimit="8" fill="none" fill-rule="evenodd"/><path d="M288 161 2318.72 161" stroke="#4472C4" stroke-width="2.29167" stroke-miterlimit="8" fill="none" fill-rule="evenodd"/><path d="M289.146 161 289.146 285.431 286.855 285.431 286.854 161ZM301.75 280.848 288 308.348 274.25 280.848Z" fill="#4472C4"/><path d="M756.146 161 756.146 285.431 753.854 285.431 753.854 161ZM768.75 280.848 755 308.348 741.25 280.848Z" fill="#4472C4"/><path d="M1222.15 161 1222.15 285.431 1219.85 285.431 1219.85 161ZM1234.75 280.848 1221 308.348 1207.25 280.848Z" fill="#4472C4"/><path d="M1688.15 161 1688.15 285.431 1685.85 285.431 1685.85 161ZM1700.75 280.848 1687 308.348 1673.25 280.848Z" fill="#4472C4"/><path d="M2320.15 161 2320.15 287.185 2317.85 287.185 2317.85 161ZM2332.75 282.602 2319 310.102 2305.25 282.602Z" fill="#4472C4"/></g></svg>